<?xml version="1.0" encoding="utf-8"?><!-- Uploaded to: SVG Repo, www.svgrepo.com, Generator: SVG Repo Mixer Tools -->
<svg fill="#000000" width="800px" height="800px" viewBox="0 0 1024 1024" xmlns="http://www.w3.org/2000/svg"><path d="M260.305 221.143c-5.879-11.652-15.503-21.276-27.147-27.147-74.449-37.552-146.973 34.968-109.422 109.407 5.88 11.653 15.506 21.281 27.146 27.159 74.451 37.544 146.974-34.979 109.423-109.419zm36.57-18.45c55.347 109.718-54.709 219.775-164.444 164.437-19.465-9.829-35.437-25.804-45.263-45.277-55.347-109.718 54.713-219.773 164.436-164.429 19.468 9.817 35.444 25.793 45.271 45.269zm344.142 248.986c4.896-2.825 6.574-9.089 3.747-13.987l-64.515-111.743c-2.823-4.892-9.086-6.569-13.985-3.743l-111.743 64.515c-4.892 2.823-6.569 9.086-3.743 13.985l64.515 111.743c2.823 4.892 9.086 6.569 13.985 3.743l111.739-64.512zm-91.264 99.987c-24.491 14.131-55.806 5.745-69.935-18.742l-64.515-111.743c-14.131-24.491-5.745-55.806 18.742-69.935l111.743-64.515c24.491-14.131 55.806-5.745 69.935 18.742l64.515 111.743c14.131 24.49 5.745 55.804-18.744 69.936l-111.741 64.513zM877.589 68.694l-11.94 198.973c-1.252 20.821-22.113 32.036-40.165 21.607l-152.54-88.067c-18.058-10.433-18.757-34.089-1.357-45.576L837.928 45.795c18.778-12.396 41.013.422 39.662 22.898zm-42.726 28.209l-121.594 80.289 112.866 65.161 8.728-145.45zM396.905 623.56H212.538l-85.025-85.025c-29.154-29.154-76.435-29.154-105.589 0-29.216 29.277-29.196 76.506-.051 105.65L128.83 751.142c14.303 14.303 33.476 21.951 53.324 21.801.121.009 158.687.028 158.687.028v195.686c0 11.311 9.169 20.48 20.48 20.48s20.48-9.169 20.48-20.48V752.491c0-11.311-9.169-20.48-20.48-20.48H182.757c-9.803.09-18.473-3.341-24.964-9.833L50.836 615.221c-13.168-13.168-13.168-34.502-.004-47.659 13.269-13.223 34.577-13.205 47.718-.065l91.023 91.023a20.48 20.48 0 0014.482 5.998h191.947c.288.022 19.652.092 19.652.092 18.672 0 33.812 15.141 33.812 33.812v270.234c0 11.311 9.169 20.48 20.48 20.48s20.48-9.169 20.48-20.48V698.422c0-41.294-33.479-74.772-74.772-74.772h-16.73c-.401-.028-.947-.05-2.019-.092zm210.439.092c-41.294 0-74.772 33.479-74.772 74.772v270.234c0 11.311 9.169 20.48 20.48 20.48s20.48-9.169 20.48-20.48V698.424c0-18.672 15.141-33.812 33.812-33.812h17.869l1.54-.092h192.191a20.484 20.484 0 0014.482-5.998l91.023-91.023c13.141-13.141 34.449-13.158 47.611-.052 13.271 13.275 13.271 34.609.103 47.776L865.206 722.18c-6.491 6.491-15.161 9.922-24.244 9.804-3.654.229-3.654.229-4.534.438.49-.144.49-.144 4.041-.409h-178.79c-11.311 0-20.48 9.169-20.48 20.48v216.166c0 11.311 9.169 20.48 20.48 20.48s20.48-9.169 20.48-20.48V772.973h158.31c20.059.188 39.336-7.465 53.701-21.829l106.957-106.957c29.144-29.144 29.165-76.373.057-105.532-29.262-29.272-76.543-29.272-105.697-.118l-85.025 85.025H626.095c-1.206.048-1.747.069-2.164.103l-16.586-.011z"/></svg>